# Blender 4.5.1 LTS
# www.blender.org
mtllib terrain.mtl
o Plane
v -5.000000 0.000000 5.000000
v 5.000000 0.000000 5.000000
v -5.000000 -0.000000 -5.000000
v 5.000000 -0.000000 -5.000000
v -4.090909 0.000000 5.000000
v -3.181818 0.000000 5.000000
v -2.272727 0.000000 5.000000
v -1.363636 0.000000 5.000000
v -0.454545 0.000000 5.000000
v 0.454546 0.000000 5.000000
v 1.363636 0.000000 5.000000
v 2.272727 0.000000 5.000000
v 3.181818 0.000000 5.000000
v 4.090909 0.000000 5.000000
v 4.090909 -0.000000 -5.000000
v 3.181818 -0.000000 -5.000000
v 2.272727 -0.000000 -5.000000
v 1.363636 -0.000000 -5.000000
v 0.454545 -0.000000 -5.000000
v -0.454546 -0.000000 -5.000000
v -1.363636 -0.000000 -5.000000
v -2.272727 -0.000000 -5.000000
v -3.181818 -0.000000 -5.000000
v -4.090909 -0.000000 -5.000000
v -5.000000 -0.000000 -4.090909
v -5.000000 -0.000000 -3.181818
v -5.000000 -0.000000 -2.272727
v -5.000000 -0.000000 -1.363636
v -5.000000 -0.000000 -0.454545
v -5.000000 0.000000 0.454546
v -5.000000 0.000000 1.363636
v -5.000000 0.000000 2.272727
v -5.000000 0.000000 3.181818
v -5.000000 0.000000 4.090909
v 5.000000 0.000000 4.090909
v 5.000000 0.000000 3.181818
v 5.000000 0.000000 2.272727
v 5.000000 0.000000 1.363636
v 5.000000 0.000000 0.454545
v 5.000000 -0.000000 -0.454546
v 5.000000 -0.000000 -1.363636
v 5.000000 -0.000000 -2.272727
v 5.000000 -0.000000 -3.181818
v 5.000000 -0.000000 -4.090909
v -4.090909 0.000000 4.090909
v -4.090909 0.000000 3.181818
v -4.090909 0.000000 2.272727
v -4.090909 0.000000 1.363636
v -4.090909 0.000000 0.454545
v -4.090909 -0.000000 -0.454546
v -4.090909 -0.000000 -1.363636
v -4.090909 -0.000000 -2.272727
v -4.090909 -0.000000 -3.181818
v -4.090909 -0.000000 -4.090909
v -3.181818 0.000000 4.090909
v -3.181818 0.000000 3.181818
v -3.181818 0.000000 2.272727
v -3.181818 0.000000 1.363636
v -3.181818 0.000000 0.454545
v -3.181818 -0.000000 -0.454546
v -3.181818 -0.000000 -1.363636
v -3.181818 -0.000000 -2.272727
v -3.181818 -0.000000 -3.181818
v -3.181818 -0.000000 -4.090909
v -2.272727 0.000000 4.090909
v -2.272727 0.000000 3.181818
v -2.272727 0.000000 2.272727
v -2.272727 0.000000 1.363636
v -2.272727 0.000000 0.454545
v -2.272727 -0.000000 -0.454546
v -2.272727 -0.000000 -1.363636
v -2.272727 -0.000000 -2.272727
v -2.272727 -0.000000 -3.181818
v -2.272727 -0.000000 -4.090909
v -1.363636 0.000000 4.090909
v -1.363636 0.000000 3.181818
v -1.363636 0.000000 2.272727
v -1.363636 1.000000 1.363636
v -1.363636 1.000000 0.454545
v -1.363636 1.000000 -0.454546
v -1.363636 -0.000000 -1.363636
v -1.363636 -0.000000 -2.272727
v -1.363636 -0.000000 -3.181818
v -1.363636 -0.000000 -4.090909
v -0.454545 0.000000 4.090909
v -0.454545 0.000000 3.181818
v -0.454545 0.000000 2.272727
v -0.454545 1.000000 1.363636
v -0.454545 1.000000 0.454545
v -0.454545 1.000000 -0.454546
v -0.454545 -0.000000 -1.363636
v -0.454545 -0.000000 -2.272727
v -0.454545 -0.000000 -3.181818
v -0.454546 -0.000000 -4.090909
v 0.454545 0.000000 4.090909
v 0.454545 0.000000 3.181818
v 0.454545 0.000000 2.272727
v 0.454545 1.000000 1.363636
v 0.454545 1.000000 0.454545
v 0.454545 1.000000 -0.454546
v 0.454545 -0.000000 -1.363636
v 0.454545 -0.000000 -2.272727
v 0.454545 -0.000000 -3.181818
v 0.454545 -0.000000 -4.090909
v 1.363636 0.000000 4.090909
v 1.363636 0.000000 3.181818
v 1.363636 0.000000 2.272727
v 1.363636 0.000000 1.363636
v 1.363636 0.000000 0.454545
v 1.363636 -0.000000 -0.454546
v 1.363636 -0.000000 -1.363636
v 1.363636 -0.000000 -2.272727
v 1.363636 -0.000000 -3.181818
v 1.363636 -0.000000 -4.090909
v 2.272727 0.000000 4.090909
v 2.272727 0.000000 3.181818
v 2.272727 0.000000 2.272727
v 2.272727 0.000000 1.363636
v 2.272727 0.000000 0.454545
v 2.272727 -0.000000 -0.454546
v 2.272727 -0.000000 -1.363636
v 2.272727 -0.000000 -2.272727
v 2.272727 -0.000000 -3.181818
v 2.272727 -0.000000 -4.090909
v 3.181818 0.000000 4.090909
v 3.181818 0.000000 3.181818
v 3.181818 0.000000 2.272727
v 3.181818 0.000000 1.363636
v 3.181818 0.000000 0.454545
v 3.181818 -0.000000 -0.454546
v 3.181818 -0.000000 -1.363636
v 3.181818 -0.000000 -2.272727
v 3.181818 0.400000 -3.181818
v 3.181818 0.400000 -4.090909
v 4.090909 0.000000 4.090909
v 4.090909 0.000000 3.181818
v 4.090909 0.000000 2.272727
v 4.090909 0.000000 1.363636
v 4.090909 0.000000 0.454545
v 4.090909 -0.000000 -0.454546
v 4.090909 -0.000000 -1.363636
v 4.090909 -0.000000 -2.272727
v 4.090909 0.400000 -3.181818
v 4.090909 0.400000 -4.090909
vn 0.2101 0.9549 -0.2101
vn -0.0000 1.0000 -0.0000
vn -0.2101 0.9549 -0.2101
vn -0.0000 0.9153 -0.4027
vn -0.0000 0.9153 0.4027
vn -0.2101 0.9549 0.2101
vn -0.4027 0.9153 -0.0000
vn 0.4341 0.7893 0.4341
vn 0.7399 0.6727 -0.0000
vn 0.4341 0.7893 -0.4341
vn -0.0000 0.6727 0.7399
vn -0.0000 0.6727 -0.7399
vn -0.4341 0.7893 0.4341
vn -0.7399 0.6727 -0.0000
vn -0.4341 0.7893 -0.4341
vn 0.2101 0.9549 0.2101
vn 0.4027 0.9153 -0.0000
vt 0.909091 0.909091
vt 1.000000 0.909091
vt 1.000000 1.000000
vt 0.909091 1.000000
vt 0.000000 0.909091
vt 0.090909 0.909091
vt 0.090909 1.000000
vt 0.000000 1.000000
vt 0.181818 0.909091
vt 0.181818 1.000000
vt 0.272727 0.909091
vt 0.272727 1.000000
vt 0.363636 0.909091
vt 0.363636 1.000000
vt 0.454545 0.909091
vt 0.454545 1.000000
vt 0.545455 0.909091
vt 0.545455 1.000000
vt 0.636364 0.909091
vt 0.636364 1.000000
vt 0.727273 0.909091
vt 0.727273 1.000000
vt 0.818182 0.909091
vt 0.818182 1.000000
vt 0.818182 0.000000
vt 0.909091 0.000000
vt 0.909091 0.090909
vt 0.818182 0.090909
vt 0.909091 0.181818
vt 0.818182 0.181818
vt 0.909091 0.272727
vt 0.818182 0.272727
vt 0.909091 0.363636
vt 0.818182 0.363636
vt 0.909091 0.454545
vt 0.818182 0.454545
vt 0.909091 0.545455
vt 0.818182 0.545455
vt 0.909091 0.636364
vt 0.818182 0.636364
vt 0.909091 0.727273
vt 0.818182 0.727273
vt 0.909091 0.818182
vt 0.818182 0.818182
vt 0.727273 0.000000
vt 0.727273 0.090909
vt 0.727273 0.181818
vt 0.727273 0.272727
vt 0.727273 0.363636
vt 0.727273 0.454545
vt 0.727273 0.545455
vt 0.727273 0.636364
vt 0.727273 0.727273
vt 0.727273 0.818182
vt 0.636364 0.000000
vt 0.636364 0.090909
vt 0.636364 0.181818
vt 0.636364 0.272727
vt 0.636364 0.363636
vt 0.636364 0.454545
vt 0.636364 0.545455
vt 0.636364 0.636364
vt 0.636364 0.727273
vt 0.636364 0.818182
vt 0.545455 0.000000
vt 0.545455 0.090909
vt 0.545455 0.181818
vt 0.545455 0.272727
vt 0.545455 0.363636
vt 0.545455 0.454545
vt 0.545455 0.545455
vt 0.545455 0.636364
vt 0.545455 0.727273
vt 0.545455 0.818182
vt 0.454545 0.000000
vt 0.454545 0.090909
vt 0.454545 0.181818
vt 0.454545 0.272727
vt 0.454545 0.363636
vt 0.454545 0.454545
vt 0.454545 0.545455
vt 0.454545 0.636364
vt 0.454545 0.727273
vt 0.454545 0.818182
vt 0.363636 0.000000
vt 0.363636 0.090909
vt 0.363636 0.181818
vt 0.363636 0.272727
vt 0.363636 0.363636
vt 0.363636 0.454545
vt 0.363636 0.545455
vt 0.363636 0.636364
vt 0.363636 0.727273
vt 0.363636 0.818182
vt 0.272727 0.000000
vt 0.272727 0.090909
vt 0.272727 0.181818
vt 0.272727 0.272727
vt 0.272727 0.363636
vt 0.272727 0.454545
vt 0.272727 0.545455
vt 0.272727 0.636364
vt 0.272727 0.727273
vt 0.272727 0.818182
vt 0.181818 0.000000
vt 0.181818 0.090909
vt 0.181818 0.181818
vt 0.181818 0.272727
vt 0.181818 0.363636
vt 0.181818 0.454545
vt 0.181818 0.545455
vt 0.181818 0.636364
vt 0.181818 0.727273
vt 0.181818 0.818182
vt 0.090909 0.000000
vt 0.090909 0.090909
vt 0.090909 0.181818
vt 0.090909 0.272727
vt 0.090909 0.363636
vt 0.090909 0.454545
vt 0.090909 0.545455
vt 0.090909 0.636364
vt 0.090909 0.727273
vt 0.090909 0.818182
vt 0.000000 0.000000
vt 0.000000 0.090909
vt 0.000000 0.181818
vt 0.000000 0.272727
vt 0.000000 0.363636
vt 0.000000 0.454545
vt 0.000000 0.545455
vt 0.000000 0.636364
vt 0.000000 0.727273
vt 0.000000 0.818182
vt 1.000000 0.000000
vt 1.000000 0.090909
vt 1.000000 0.181818
vt 1.000000 0.272727
vt 1.000000 0.363636
vt 1.000000 0.454545
vt 1.000000 0.545455
vt 1.000000 0.636364
vt 1.000000 0.727273
vt 1.000000 0.818182
s 1
f 144/1/1 44/2/1 4/3/1 15/4/1
f 25/5/2 54/6/2 24/7/2 3/8/2
f 54/6/2 64/9/2 23/10/2 24/7/2
f 64/9/2 74/11/2 22/12/2 23/10/2
f 74/11/2 84/13/2 21/14/2 22/12/2
f 84/13/2 94/15/2 20/16/2 21/14/2
f 94/15/2 104/17/2 19/18/2 20/16/2
f 104/17/2 114/19/2 18/20/2 19/18/2
f 114/19/2 124/21/2 17/22/2 18/20/2
f 124/21/3 134/23/3 16/24/3 17/22/3
f 134/23/4 144/1/4 15/4/4 16/24/4
f 13/25/2 14/26/2 135/27/2 125/28/2
f 125/28/2 135/27/2 136/29/2 126/30/2
f 126/30/2 136/29/2 137/31/2 127/32/2
f 127/32/2 137/31/2 138/33/2 128/34/2
f 128/34/2 138/33/2 139/35/2 129/36/2
f 129/36/2 139/35/2 140/37/2 130/38/2
f 130/38/2 140/37/2 141/39/2 131/40/2
f 131/40/2 141/39/2 142/41/2 132/42/2
f 132/42/5 142/41/5 143/43/5 133/44/5
f 133/44/2 143/43/2 144/1/2 134/23/2
f 12/45/2 13/25/2 125/28/2 115/46/2
f 115/46/2 125/28/2 126/30/2 116/47/2
f 116/47/2 126/30/2 127/32/2 117/48/2
f 117/48/2 127/32/2 128/34/2 118/49/2
f 118/49/2 128/34/2 129/36/2 119/50/2
f 119/50/2 129/36/2 130/38/2 120/51/2
f 120/51/2 130/38/2 131/40/2 121/52/2
f 121/52/2 131/40/2 132/42/2 122/53/2
f 122/53/6 132/42/6 133/44/6 123/54/6
f 123/54/7 133/44/7 134/23/7 124/21/7
f 11/55/2 12/45/2 115/46/2 105/56/2
f 105/56/2 115/46/2 116/47/2 106/57/2
f 106/57/2 116/47/2 117/48/2 107/58/2
f 107/58/2 117/48/2 118/49/2 108/59/2
f 108/59/2 118/49/2 119/50/2 109/60/2
f 109/60/2 119/50/2 120/51/2 110/61/2
f 110/61/2 120/51/2 121/52/2 111/62/2
f 111/62/2 121/52/2 122/53/2 112/63/2
f 112/63/2 122/53/2 123/54/2 113/64/2
f 113/64/2 123/54/2 124/21/2 114/19/2
f 10/65/2 11/55/2 105/56/2 95/66/2
f 95/66/2 105/56/2 106/57/2 96/67/2
f 96/67/2 106/57/2 107/58/2 97/68/2
f 97/68/8 107/58/8 108/59/8 98/69/8
f 98/69/9 108/59/9 109/60/9 99/70/9
f 99/70/9 109/60/9 110/61/9 100/71/9
f 100/71/10 110/61/10 111/62/10 101/72/10
f 101/72/2 111/62/2 112/63/2 102/73/2
f 102/73/2 112/63/2 113/64/2 103/74/2
f 103/74/2 113/64/2 114/19/2 104/17/2
f 9/75/2 10/65/2 95/66/2 85/76/2
f 85/76/2 95/66/2 96/67/2 86/77/2
f 86/77/2 96/67/2 97/68/2 87/78/2
f 87/78/11 97/68/11 98/69/11 88/79/11
f 88/79/2 98/69/2 99/70/2 89/80/2
f 89/80/2 99/70/2 100/71/2 90/81/2
f 90/81/12 100/71/12 101/72/12 91/82/12
f 91/82/2 101/72/2 102/73/2 92/83/2
f 92/83/2 102/73/2 103/74/2 93/84/2
f 93/84/2 103/74/2 104/17/2 94/15/2
f 8/85/2 9/75/2 85/76/2 75/86/2
f 75/86/2 85/76/2 86/77/2 76/87/2
f 76/87/2 86/77/2 87/78/2 77/88/2
f 77/88/11 87/78/11 88/79/11 78/89/11
f 78/89/2 88/79/2 89/80/2 79/90/2
f 79/90/2 89/80/2 90/81/2 80/91/2
f 80/91/12 90/81/12 91/82/12 81/92/12
f 81/92/2 91/82/2 92/83/2 82/93/2
f 82/93/2 92/83/2 93/84/2 83/94/2
f 83/94/2 93/84/2 94/15/2 84/13/2
f 7/95/2 8/85/2 75/86/2 65/96/2
f 65/96/2 75/86/2 76/87/2 66/97/2
f 66/97/2 76/87/2 77/88/2 67/98/2
f 67/98/13 77/88/13 78/89/13 68/99/13
f 68/99/14 78/89/14 79/90/14 69/100/14
f 69/100/14 79/90/14 80/91/14 70/101/14
f 70/101/15 80/91/15 81/92/15 71/102/15
f 71/102/2 81/92/2 82/93/2 72/103/2
f 72/103/2 82/93/2 83/94/2 73/104/2
f 73/104/2 83/94/2 84/13/2 74/11/2
f 6/105/2 7/95/2 65/96/2 55/106/2
f 55/106/2 65/96/2 66/97/2 56/107/2
f 56/107/2 66/97/2 67/98/2 57/108/2
f 57/108/2 67/98/2 68/99/2 58/109/2
f 58/109/2 68/99/2 69/100/2 59/110/2
f 59/110/2 69/100/2 70/101/2 60/111/2
f 60/111/2 70/101/2 71/102/2 61/112/2
f 61/112/2 71/102/2 72/103/2 62/113/2
f 62/113/2 72/103/2 73/104/2 63/114/2
f 63/114/2 73/104/2 74/11/2 64/9/2
f 5/115/2 6/105/2 55/106/2 45/116/2
f 45/116/2 55/106/2 56/107/2 46/117/2
f 46/117/2 56/107/2 57/108/2 47/118/2
f 47/118/2 57/108/2 58/109/2 48/119/2
f 48/119/2 58/109/2 59/110/2 49/120/2
f 49/120/2 59/110/2 60/111/2 50/121/2
f 50/121/2 60/111/2 61/112/2 51/122/2
f 51/122/2 61/112/2 62/113/2 52/123/2
f 52/123/2 62/113/2 63/114/2 53/124/2
f 53/124/2 63/114/2 64/9/2 54/6/2
f 1/125/2 5/115/2 45/116/2 34/126/2
f 34/126/2 45/116/2 46/117/2 33/127/2
f 33/127/2 46/117/2 47/118/2 32/128/2
f 32/128/2 47/118/2 48/119/2 31/129/2
f 31/129/2 48/119/2 49/120/2 30/130/2
f 30/130/2 49/120/2 50/121/2 29/131/2
f 29/131/2 50/121/2 51/122/2 28/132/2
f 28/132/2 51/122/2 52/123/2 27/133/2
f 27/133/2 52/123/2 53/124/2 26/134/2
f 26/134/2 53/124/2 54/6/2 25/5/2
f 14/26/2 2/135/2 35/136/2 135/27/2
f 135/27/2 35/136/2 36/137/2 136/29/2
f 136/29/2 36/137/2 37/138/2 137/31/2
f 137/31/2 37/138/2 38/139/2 138/33/2
f 138/33/2 38/139/2 39/140/2 139/35/2
f 139/35/2 39/140/2 40/141/2 140/37/2
f 140/37/2 40/141/2 41/142/2 141/39/2
f 141/39/2 41/142/2 42/143/2 142/41/2
f 142/41/16 42/143/16 43/144/16 143/43/16
f 143/43/17 43/144/17 44/2/17 144/1/17
